PathFileType	4	(X/Y/Z)	/Users/itak/Documents/Research/Walk-IL/dataset/trc/00355_00011.trc
DataRate	CameraRate	NumFrames	NumMarkers	Units	OrigDataRate	OrigDataStartFrame	OrigNumFrames
100.000000	100.000000	4	56	mm	100.000000	93	746
Frame#	Time	RPSI			LPSI			STRN			T10			C7			CLAV			RBAK			LBAK			LSHO			LUPA			LAEL			LAOL			LWTS			LWPS			LFRA			LHPS			LHTS			RSHO			RUPA			RAEL			RAOL			RWTS			RWPS			RFRA			RIFD			RHTS			RHPS			RBHD			LFHD			RFHD			LBHD			LHIP			RHIP			RASI			LASI			LKNE			LTHI			LANK			LTIP			LTOE			LMT1			LMT5			LHEE			RKNE			RANK			RTIP			RTOE			RMT1			RMT5			RHEE			L3			RTHI			LIFD			*53			*54			*55			
		X1	Y1	Z1	X2	Y2	Z2	X3	Y3	Z3	X4	Y4	Z4	X5	Y5	Z5	X6	Y6	Z6	X7	Y7	Z7	X8	Y8	Z8	X9	Y9	Z9	X10	Y10	Z10	X11	Y11	Z11	X12	Y12	Z12	X13	Y13	Z13	X14	Y14	Z14	X15	Y15	Z15	X16	Y16	Z16	X17	Y17	Z17	X18	Y18	Z18	X19	Y19	Z19	X20	Y20	Z20	X21	Y21	Z21	X22	Y22	Z22	X23	Y23	Z23	X24	Y24	Z24	X25	Y25	Z25	X26	Y26	Z26	X27	Y27	Z27	X28	Y28	Z28	X29	Y29	Z29	X30	Y30	Z30	X31	Y31	Z31	X32	Y32	Z32	X33	Y33	Z33	X34	Y34	Z34	X35	Y35	Z35	X36	Y36	Z36	X37	Y37	Z37	X38	Y38	Z38	X39	Y39	Z39	X40	Y40	Z40	X41	Y41	Z41	X42	Y42	Z42	X43	Y43	Z43	X44	Y44	Z44	X45	Y45	Z45	X46	Y46	Z46	X47	Y47	Z47	X48	Y48	Z48	X49	Y49	Z49	X50	Y50	Z50	X51	Y51	Z51	X52	Y52	Z52	X53	Y53	Z53	X54	Y54	Z54	X55	Y55	Z55	X56	Y56	Z56	

94	0.93	494.4492492675781	972.0504150390625	1004.225769042969	492.5236511230469	974.4315795898438	1133.032958984375	268.0010070800781	1218.125366210938	1071.053833007812	506.6874389648438	1147.043823242188	1067.773315429688	469.59765625	1395.099731445312	1087.433715820312	311.6734924316406	1343.965087890625	1076.805786132812	517.2355346679688	1257.146850585938	1014.639709472656	475.2203674316406	1355.5791015625	1188.674194335938	389.3130187988281	1375.761352539062	1243.313354492188	397.8904113769531	1252.19580078125	1307.2236328125	366.6183166503906	1047.71484375	1307.984130859375	429.7745361328125	1033.915161132812	1253.859130859375	259.2360534667969	812.67626953125	1246.4228515625	297.7025451660156	796.5681762695312	1302.018676757812	345.1322631835938	944.5088500976562	1308.249633789062	296.47607421875	726.1727294921875	1291.87158203125	243.2089233398438	734.0775756835938	1257.2001953125	415.2476806640625	1387.022216796875	922.1737060546875	424.4278869628906	1324.129760742188	856.0466918945312	406.5323181152344	1057.830444335938	811.1237182617188	453.657470703125	1045.833740234375	892.6810302734375	290.7763366699219	833.1071166992188	859.6329345703125	320.110595703125	818.5889892578125	790.6300659179688	377.668212890625	991.4637451171875	802.9053955078125	274.5984497070312	661.246337890625	852.8162231445312	256.6265563964844	733.4007568359375	845.7987670898438	302.7296447753906	734.0191040039062	792.9830932617188	440.0763854980469	1598.513793945312	999.86083984375	259.3550415039062	1620.029541015625	1101.236694335938	278.0418701171875	1614.724853515625	1002.398681640625	439.7626342773438	1600.831420898438	1145.056884765625	400.9816589355469	920.5555419921875	1239.20361328125	419.1165466308594	916.6407470703125	893.3751220703125	312.1414184570312	943.6033325195312	933.3333129882812	282.0277404785156	945.3981323242188	1173.311157226562	343.09375	460.4610595703125	1233.933349609375	341.6204528808594	599.7168579101562	1239.130615234375	467.7084045410156	45.48341751098633	1251.889282226562	402.2795104980469	247.5453491210938	1253.42578125	263.2689514160156	56.92044830322266	1184.83251953125	330.9783325195312	38.8431396484375	1144.839111328125	340.9634094238281	48.65792465209961	1257.650390625	501.9448852539062	37.44710159301758	1183.706176757812	389.0723266601562	459.5781555175781	858.739501953125	472.2648010253906	48.51827239990234	816.2858276367188	389.8700256347656	341.5874328613281	849.8897094726562	281.0202331542969	44.63327407836914	870.2080688476562	336.8182067871094	39.37056732177734	910.4393310546875	370.4553527832031	35.51150894165039	797.9421997070312	524.8833618164062	46.77115631103516	862.25	495.145751953125	1027.481201171875	1061.046997070312	345.6498413085938	716.7991333007812	865.4276123046875	251.4083251953125	653.74560546875	1228.76611328125	nan	nan	nan	nan	nan	nan	nan	nan	nan	
95	0.9400000000000001	493.6221313476562	971.03662109375	1006.711547851562	491.3862609863281	973.7758178710938	1135.531005859375	266.4487609863281	1217.44970703125	1072.853149414062	505.4807434082031	1146.882690429688	1070.390747070312	467.6278076171875	1394.810913085938	1089.493896484375	309.8807678222656	1343.356323242188	1078.49072265625	515.8927612304688	1256.858154296875	1017.020935058594	472.9461364746094	1355.493041992188	1190.927368164062	386.8251342773438	1375.6748046875	1245.085205078125	395.2208251953125	1252.28466796875	1309.314208984375	363.8714904785156	1047.814819335938	1310.28076171875	427.5316162109375	1033.935668945312	1256.759521484375	256.6347961425781	812.7672729492188	1248.047241210938	294.6913757324219	796.7608642578125	1303.859008789062	342.2761840820312	944.5846557617188	1310.471923828125	293.7025451660156	726.2549438476562	1293.814331054688	240.5993957519531	734.2235107421875	1258.662719726562	413.7969055175781	1386.352905273438	924.1073608398438	423.3533020019531	1323.46435546875	858.1067504882812	406.6058654785156	1057.281494140625	812.7398071289062	452.9671630859375	1045.212646484375	894.7445678710938	289.4632568359375	833.1006469726562	860.2020263671875	319.7855224609375	818.188720703125	791.662841796875	377.8077392578125	990.8373413085938	804.1893920898438	272.6801147460938	661.34912109375	853.7998046875	255.1322784423828	733.5140991210938	846.3770751953125	301.9422912597656	733.7162475585938	794.1251220703125	438.6549682617188	1597.609497070312	1001.067810058594	257.0389404296875	1619.502685546875	1101.29296875	276.40966796875	1613.770874023438	1002.624633789062	437.1567993164062	1600.453857421875	1146.390014648438	399.9060668945312	920.2996215820312	1240.871459960938	418.3248596191406	915.690185546875	895.8175048828125	311.4040222167969	942.9629516601562	935.6780395507812	281.2680358886719	945.2394409179688	1175.0224609375	341.500732421875	460.2384338378906	1235.3974609375	339.7626342773438	599.4590454101562	1240.804931640625	467.7075805664062	45.35291290283203	1252.066650390625	401.4069519042969	247.0365905761719	1254.265502929688	263.1288146972656	56.429443359375	1185.213500976562	330.8695678710938	38.58229827880859	1145.096069335938	340.9835205078125	48.28925323486328	1258.035034179688	501.9436645507812	37.54478073120117	1183.939697265625	383.4821472167969	458.6802368164062	861.07177734375	472.0652160644531	48.99956130981445	816.8627319335938	385.3766174316406	340.5349426269531	851.6634521484375	280.9416809082031	44.43106842041016	870.3319702148438	336.61328125	38.79528427124023	910.8063354492188	370.3284912109375	35.70843124389648	798.2484130859375	524.6709594726562	47.12920761108398	862.7714233398438	494.311279296875	1027.149658203125	1063.590576171875	343.7938232421875	715.8628540039062	867.974365234375	249.2404174804688	653.7348022460938	1230.161865234375	nan	nan	nan	nan	nan	nan	nan	nan	nan	
96	0.9500000000000001	492.8760986328125	969.8699951171875	1009.172607421875	490.2501525878906	973.0319213867188	1138.000732421875	264.8768005371094	1216.656127929688	1074.623901367188	504.2760620117188	1146.66796875	1073.090087890625	465.5732421875	1394.446166992188	1091.62744140625	308.0346984863281	1342.643188476562	1080.158203125	514.557373046875	1256.512451171875	1019.498229980469	470.5621643066406	1355.357177734375	1193.215942382812	384.1906433105469	1375.515380859375	1246.875	392.3916931152344	1252.319702148438	1311.466430664062	360.9606628417969	1047.850952148438	1312.66064453125	425.1430358886719	1033.888061523438	1259.744750976562	253.8459625244141	812.8413696289062	1249.7099609375	291.4389038085938	796.8744506835938	1305.751098632812	339.2490234375	944.6058349609375	1312.76611328125	290.7014770507812	726.2545776367188	1295.7783203125	237.81494140625	734.3189697265625	1260.10888671875	412.3679504394531	1385.598388671875	926.091796875	422.3392028808594	1322.70849609375	860.2100830078125	406.7864990234375	1056.6416015625	814.4344482421875	452.3403930664062	1044.505126953125	896.908447265625	288.1946105957031	833.0460815429688	860.7373657226562	319.5581665039062	817.728271484375	792.6627807617188	378.0857543945312	990.119140625	805.5219116210938	270.7218322753906	661.3960571289062	854.6943359375	253.6490020751953	733.5813598632812	846.8486328125	301.1875305175781	733.3540649414062	795.24365234375	437.1580810546875	1596.620483398438	1002.269348144531	254.6194000244141	1618.872436523438	1101.33056640625	274.7046508789062	1612.705078125	1002.840026855469	434.4403686523438	1599.978393554688	1147.764892578125	398.8410034179688	919.9732055664062	1242.513305664062	417.6199645996094	914.5317993164062	898.2642822265625	310.7512817382812	942.180908203125	937.983154296875	280.548583984375	944.9757690429688	1176.65673828125	339.9287414550781	460.0049438476562	1236.965087890625	337.9819641113281	599.2106323242188	1242.587524414062	467.6972045898438	45.20955657958984	1252.264770507812	400.5462646484375	246.5317993164062	1255.17041015625	262.9639587402344	55.83679580688477	1185.62158203125	330.7264404296875	38.3123779296875	1145.380249023438	340.9898986816406	47.87711334228516	1258.435546875	501.930419921875	37.63667297363281	1184.183837890625	377.0458374023438	457.5949096679688	863.505126953125	471.75927734375	49.6600227355957	817.6385498046875	380.2621459960938	339.3488464355469	853.5311279296875	280.7622680664062	44.13914108276367	870.4588012695312	336.3424072265625	38.15457916259766	911.1747436523438	370.1417846679688	35.95766448974609	798.6231689453125	524.322509765625	47.73633193969727	863.5315551757812	493.5165710449219	1026.750244140625	1066.156127929688	341.5504760742188	714.766357421875	870.5935668945312	246.8135070800781	653.7349853515625	1231.603759765625	nan	nan	nan	nan	nan	nan	nan	nan	nan	
97	0.96	492.2219848632812	968.532470703125	1011.596008300781	489.1228637695312	972.1959228515625	1140.42724609375	263.302490234375	1215.731567382812	1076.33837890625	503.0726013183594	1146.396362304688	1075.860961914062	463.4281921386719	1394.005493164062	1093.822143554688	306.1289672851562	1341.81884765625	1081.787719726562	513.2335205078125	1256.113525390625	1022.063232421875	468.0532531738281	1355.166381835938	1195.526489257812	381.3939819335938	1375.273803710938	1248.671752929688	389.3903503417969	1252.281494140625	1313.661987304688	357.8821411132812	1047.805419921875	1315.113525390625	422.5915832519531	1033.74560546875	1262.80078125	250.8636932373047	812.8824462890625	1251.40625	287.9277648925781	796.8782958984375	1307.696411132812	336.0473022460938	944.5488891601562	1315.120971679688	287.4551086425781	726.1563720703125	1297.734985351562	234.8765563964844	734.3228149414062	1261.518432617188	410.9719848632812	1384.7578125	928.1130981445312	421.4016723632812	1321.857177734375	862.348388671875	407.0705261230469	1055.90380859375	816.2080078125	451.7766723632812	1043.698608398438	899.1650390625	286.9943237304688	832.9292602539062	861.2454223632812	319.4362182617188	817.2011108398438	793.6334228515625	378.4903869628906	989.3092041015625	806.9017333984375	268.7587280273438	661.3657836914062	855.4933471679688	252.1789093017578	733.581787109375	847.2030639648438	300.470947265625	732.93017578125	796.3143920898438	435.5606994628906	1595.548095703125	1003.486694335938	252.0967407226562	1618.135986328125	1101.347900390625	272.9256286621094	1611.529663085938	1003.046447753906	431.6046447753906	1599.400390625	1149.1787109375	397.7026977539062	919.6160278320312	1244.217895507812	417.0109558105469	913.1326904296875	900.7086181640625	310.1856079101562	941.2430419921875	940.2195434570312	279.73779296875	944.6237182617188	1178.267211914062	338.3476867675781	459.7338562011719	1238.589111328125	336.290283203125	598.9607543945312	1244.465942382812	467.6749267578125	45.04425811767578	1252.483154296875	399.6651611328125	246.0270843505859	1256.104614257812	262.79345703125	55.17634201049805	1186.029907226562	330.5554504394531	38.05271148681641	1145.669921875	340.9766235351562	47.43774032592773	1258.824829101562	501.9104309082031	37.71801376342773	1184.430297851562	369.8077392578125	456.3556518554688	866.0120239257812	471.3474426269531	50.56821441650391	818.6572875976562	374.5683288574219	338.0674438476562	855.4844970703125	280.4703369140625	43.76266479492188	870.5906982421875	335.9823303222656	37.47211074829102	911.5536499023438	369.9035339355469	36.28585433959961	799.0756225585938	523.823486328125	48.68858337402344	864.5820922851562	492.7646484375	1026.291625976562	1068.738647460938	338.9028015136719	713.504638671875	873.2777099609375	244.1169586181641	653.7227172851562	1233.062622070312	nan	nan	nan	nan	nan	nan	nan	nan	nan	
